<?xml version="1.0" encoding="utf-8" standalone="no"?>
<!DOCTYPE svg PUBLIC "-//W3C//DTD SVG 1.1//EN"
  "http://www.w3.org/Graphics/SVG/1.1/DTD/svg11.dtd">
<svg xmlns:xlink="http://www.w3.org/1999/xlink" width="929.014687pt" height="387.034375pt" viewBox="0 0 929.014687 387.034375" xmlns="http://www.w3.org/2000/svg" version="1.1">
 <metadata>
  <rdf:RDF xmlns:dc="http://purl.org/dc/elements/1.1/" xmlns:cc="http://creativecommons.org/ns#" xmlns:rdf="http://www.w3.org/1999/02/22-rdf-syntax-ns#">
   <cc:Work>
    <dc:type rdf:resource="http://purl.org/dc/dcmitype/StillImage"/>
    <dc:date>2026-04-21T00:08:35.115839</dc:date>
    <dc:format>image/svg+xml</dc:format>
    <dc:creator>
     <cc:Agent>
      <dc:title>Matplotlib v3.10.8, https://matplotlib.org/</dc:title>
     </cc:Agent>
    </dc:creator>
   </cc:Work>
  </rdf:RDF>
 </metadata>
 <defs>
  <style type="text/css">*{stroke-linejoin: round; stroke-linecap: butt}</style>
 </defs>
 <g id="figure_1">
  <g id="patch_1">
   <path d="M 0 387.034375 
L 929.014687 387.034375 
L 929.014687 0 
L 0 0 
z
" style="fill: #ffffff"/>
  </g>
  <g id="axes_1">
   <g id="patch_2">
    <path d="M 167.504687 349.478125 
L 426.319687 349.478125 
L 426.319687 22.318125 
L 167.504687 22.318125 
z
" style="fill: #ffffff"/>
   </g>
   <g id="patch_3">
    <path d="M 167.504687 334.607216 
L 206.379247 334.607216 
L 206.379247 304.102787 
L 167.504687 304.102787 
z
" clip-path="url(#p2e8a309801)" style="fill: #40667a"/>
   </g>
   <g id="patch_4">
    <path d="M 167.504687 296.47668 
L 215.962415 296.47668 
L 215.962415 265.972251 
L 167.504687 265.972251 
z
" clip-path="url(#p2e8a309801)" style="fill: #40667a"/>
   </g>
   <g id="patch_5">
    <path d="M 167.504687 258.346144 
L 218.645041 258.346144 
L 218.645041 227.841715 
L 167.504687 227.841715 
z
" clip-path="url(#p2e8a309801)" style="fill: #40667a"/>
   </g>
   <g id="patch_6">
    <path d="M 167.504687 220.215608 
L 245.527642 220.215608 
L 245.527642 189.711179 
L 167.504687 189.711179 
z
" clip-path="url(#p2e8a309801)" style="fill: #40667a"/>
   </g>
   <g id="patch_7">
    <path d="M 167.504687 182.085071 
L 249.948935 182.085071 
L 249.948935 151.580642 
L 167.504687 151.580642 
z
" clip-path="url(#p2e8a309801)" style="fill: #40667a"/>
   </g>
   <g id="patch_8">
    <path d="M 167.504687 143.954535 
L 255.914263 143.954535 
L 255.914263 113.450106 
L 167.504687 113.450106 
z
" clip-path="url(#p2e8a309801)" style="fill: #40667a"/>
   </g>
   <g id="patch_9">
    <path d="M 167.504687 105.823999 
L 313.075042 105.823999 
L 313.075042 75.31957 
L 167.504687 75.31957 
z
" clip-path="url(#p2e8a309801)" style="fill: #40667a"/>
   </g>
   <g id="patch_10">
    <path d="M 167.504687 67.693463 
L 413.995164 67.693463 
L 413.995164 37.189034 
L 167.504687 37.189034 
z
" clip-path="url(#p2e8a309801)" style="fill: #40667a"/>
   </g>
   <g id="matplotlib.axis_1">
    <g id="xtick_1">
     <g id="line2d_1">
      <path d="M 167.504687 349.478125 
L 167.504687 22.318125 
" clip-path="url(#p2e8a309801)" style="fill: none; stroke: #b0b0b0; stroke-opacity: 0.2; stroke-width: 0.8; stroke-linecap: square"/>
     </g>
     <g id="line2d_2">
      <defs>
       <path id="me5689abb99" d="M 0 0 
L 0 3.5 
" style="stroke: #000000; stroke-width: 0.8"/>
      </defs>
      <g>
       <use xlink:href="#me5689abb99" x="167.504687" y="349.478125" style="stroke: #000000; stroke-width: 0.8"/>
      </g>
     </g>
     <g id="text_1">
      <!-- 0.0 -->
      <g transform="translate(159.553125 364.076562) scale(0.1 -0.1)">
       <defs>
        <path id="DejaVuSans-30" d="M 2034 4250 
Q 1547 4250 1301 3770 
Q 1056 3291 1056 2328 
Q 1056 1369 1301 889 
Q 1547 409 2034 409 
Q 2525 409 2770 889 
Q 3016 1369 3016 2328 
Q 3016 3291 2770 3770 
Q 2525 4250 2034 4250 
z
M 2034 4750 
Q 2819 4750 3233 4129 
Q 3647 3509 3647 2328 
Q 3647 1150 3233 529 
Q 2819 -91 2034 -91 
Q 1250 -91 836 529 
Q 422 1150 422 2328 
Q 422 3509 836 4129 
Q 1250 4750 2034 4750 
z
" transform="scale(0.015625)"/>
        <path id="DejaVuSans-2e" d="M 684 794 
L 1344 794 
L 1344 0 
L 684 0 
L 684 794 
z
" transform="scale(0.015625)"/>
       </defs>
       <use xlink:href="#DejaVuSans-30"/>
       <use xlink:href="#DejaVuSans-2e" transform="translate(63.623047 0)"/>
       <use xlink:href="#DejaVuSans-30" transform="translate(95.410156 0)"/>
      </g>
     </g>
    </g>
    <g id="xtick_2">
     <g id="line2d_3">
      <path d="M 212.04772 349.478125 
L 212.04772 22.318125 
" clip-path="url(#p2e8a309801)" style="fill: none; stroke: #b0b0b0; stroke-opacity: 0.2; stroke-width: 0.8; stroke-linecap: square"/>
     </g>
     <g id="line2d_4">
      <g>
       <use xlink:href="#me5689abb99" x="212.04772" y="349.478125" style="stroke: #000000; stroke-width: 0.8"/>
      </g>
     </g>
     <g id="text_2">
      <!-- 0.2 -->
      <g transform="translate(204.096157 364.076562) scale(0.1 -0.1)">
       <defs>
        <path id="DejaVuSans-32" d="M 1228 531 
L 3431 531 
L 3431 0 
L 469 0 
L 469 531 
Q 828 903 1448 1529 
Q 2069 2156 2228 2338 
Q 2531 2678 2651 2914 
Q 2772 3150 2772 3378 
Q 2772 3750 2511 3984 
Q 2250 4219 1831 4219 
Q 1534 4219 1204 4116 
Q 875 4013 500 3803 
L 500 4441 
Q 881 4594 1212 4672 
Q 1544 4750 1819 4750 
Q 2544 4750 2975 4387 
Q 3406 4025 3406 3419 
Q 3406 3131 3298 2873 
Q 3191 2616 2906 2266 
Q 2828 2175 2409 1742 
Q 1991 1309 1228 531 
z
" transform="scale(0.015625)"/>
       </defs>
       <use xlink:href="#DejaVuSans-30"/>
       <use xlink:href="#DejaVuSans-2e" transform="translate(63.623047 0)"/>
       <use xlink:href="#DejaVuSans-32" transform="translate(95.410156 0)"/>
      </g>
     </g>
    </g>
    <g id="xtick_3">
     <g id="line2d_5">
      <path d="M 256.590752 349.478125 
L 256.590752 22.318125 
" clip-path="url(#p2e8a309801)" style="fill: none; stroke: #b0b0b0; stroke-opacity: 0.2; stroke-width: 0.8; stroke-linecap: square"/>
     </g>
     <g id="line2d_6">
      <g>
       <use xlink:href="#me5689abb99" x="256.590752" y="349.478125" style="stroke: #000000; stroke-width: 0.8"/>
      </g>
     </g>
     <g id="text_3">
      <!-- 0.4 -->
      <g transform="translate(248.63919 364.076562) scale(0.1 -0.1)">
       <defs>
        <path id="DejaVuSans-34" d="M 2419 4116 
L 825 1625 
L 2419 1625 
L 2419 4116 
z
M 2253 4666 
L 3047 4666 
L 3047 1625 
L 3713 1625 
L 3713 1100 
L 3047 1100 
L 3047 0 
L 2419 0 
L 2419 1100 
L 313 1100 
L 313 1709 
L 2253 4666 
z
" transform="scale(0.015625)"/>
       </defs>
       <use xlink:href="#DejaVuSans-30"/>
       <use xlink:href="#DejaVuSans-2e" transform="translate(63.623047 0)"/>
       <use xlink:href="#DejaVuSans-34" transform="translate(95.410156 0)"/>
      </g>
     </g>
    </g>
    <g id="xtick_4">
     <g id="line2d_7">
      <path d="M 301.133785 349.478125 
L 301.133785 22.318125 
" clip-path="url(#p2e8a309801)" style="fill: none; stroke: #b0b0b0; stroke-opacity: 0.2; stroke-width: 0.8; stroke-linecap: square"/>
     </g>
     <g id="line2d_8">
      <g>
       <use xlink:href="#me5689abb99" x="301.133785" y="349.478125" style="stroke: #000000; stroke-width: 0.8"/>
      </g>
     </g>
     <g id="text_4">
      <!-- 0.6 -->
      <g transform="translate(293.182222 364.076562) scale(0.1 -0.1)">
       <defs>
        <path id="DejaVuSans-36" d="M 2113 2584 
Q 1688 2584 1439 2293 
Q 1191 2003 1191 1497 
Q 1191 994 1439 701 
Q 1688 409 2113 409 
Q 2538 409 2786 701 
Q 3034 994 3034 1497 
Q 3034 2003 2786 2293 
Q 2538 2584 2113 2584 
z
M 3366 4563 
L 3366 3988 
Q 3128 4100 2886 4159 
Q 2644 4219 2406 4219 
Q 1781 4219 1451 3797 
Q 1122 3375 1075 2522 
Q 1259 2794 1537 2939 
Q 1816 3084 2150 3084 
Q 2853 3084 3261 2657 
Q 3669 2231 3669 1497 
Q 3669 778 3244 343 
Q 2819 -91 2113 -91 
Q 1303 -91 875 529 
Q 447 1150 447 2328 
Q 447 3434 972 4092 
Q 1497 4750 2381 4750 
Q 2619 4750 2861 4703 
Q 3103 4656 3366 4563 
z
" transform="scale(0.015625)"/>
       </defs>
       <use xlink:href="#DejaVuSans-30"/>
       <use xlink:href="#DejaVuSans-2e" transform="translate(63.623047 0)"/>
       <use xlink:href="#DejaVuSans-36" transform="translate(95.410156 0)"/>
      </g>
     </g>
    </g>
    <g id="xtick_5">
     <g id="line2d_9">
      <path d="M 345.676817 349.478125 
L 345.676817 22.318125 
" clip-path="url(#p2e8a309801)" style="fill: none; stroke: #b0b0b0; stroke-opacity: 0.2; stroke-width: 0.8; stroke-linecap: square"/>
     </g>
     <g id="line2d_10">
      <g>
       <use xlink:href="#me5689abb99" x="345.676817" y="349.478125" style="stroke: #000000; stroke-width: 0.8"/>
      </g>
     </g>
     <g id="text_5">
      <!-- 0.8 -->
      <g transform="translate(337.725255 364.076562) scale(0.1 -0.1)">
       <defs>
        <path id="DejaVuSans-38" d="M 2034 2216 
Q 1584 2216 1326 1975 
Q 1069 1734 1069 1313 
Q 1069 891 1326 650 
Q 1584 409 2034 409 
Q 2484 409 2743 651 
Q 3003 894 3003 1313 
Q 3003 1734 2745 1975 
Q 2488 2216 2034 2216 
z
M 1403 2484 
Q 997 2584 770 2862 
Q 544 3141 544 3541 
Q 544 4100 942 4425 
Q 1341 4750 2034 4750 
Q 2731 4750 3128 4425 
Q 3525 4100 3525 3541 
Q 3525 3141 3298 2862 
Q 3072 2584 2669 2484 
Q 3125 2378 3379 2068 
Q 3634 1759 3634 1313 
Q 3634 634 3220 271 
Q 2806 -91 2034 -91 
Q 1263 -91 848 271 
Q 434 634 434 1313 
Q 434 1759 690 2068 
Q 947 2378 1403 2484 
z
M 1172 3481 
Q 1172 3119 1398 2916 
Q 1625 2713 2034 2713 
Q 2441 2713 2670 2916 
Q 2900 3119 2900 3481 
Q 2900 3844 2670 4047 
Q 2441 4250 2034 4250 
Q 1625 4250 1398 4047 
Q 1172 3844 1172 3481 
z
" transform="scale(0.015625)"/>
       </defs>
       <use xlink:href="#DejaVuSans-30"/>
       <use xlink:href="#DejaVuSans-2e" transform="translate(63.623047 0)"/>
       <use xlink:href="#DejaVuSans-38" transform="translate(95.410156 0)"/>
      </g>
     </g>
    </g>
    <g id="xtick_6">
     <g id="line2d_11">
      <path d="M 390.219849 349.478125 
L 390.219849 22.318125 
" clip-path="url(#p2e8a309801)" style="fill: none; stroke: #b0b0b0; stroke-opacity: 0.2; stroke-width: 0.8; stroke-linecap: square"/>
     </g>
     <g id="line2d_12">
      <g>
       <use xlink:href="#me5689abb99" x="390.219849" y="349.478125" style="stroke: #000000; stroke-width: 0.8"/>
      </g>
     </g>
     <g id="text_6">
      <!-- 1.0 -->
      <g transform="translate(382.268287 364.076562) scale(0.1 -0.1)">
       <defs>
        <path id="DejaVuSans-31" d="M 794 531 
L 1825 531 
L 1825 4091 
L 703 3866 
L 703 4441 
L 1819 4666 
L 2450 4666 
L 2450 531 
L 3481 531 
L 3481 0 
L 794 0 
L 794 531 
z
" transform="scale(0.015625)"/>
       </defs>
       <use xlink:href="#DejaVuSans-31"/>
       <use xlink:href="#DejaVuSans-2e" transform="translate(63.623047 0)"/>
       <use xlink:href="#DejaVuSans-30" transform="translate(95.410156 0)"/>
      </g>
     </g>
    </g>
    <g id="text_7">
     <!-- Information Value -->
     <g transform="translate(252.648906 377.754687) scale(0.1 -0.1)">
      <defs>
       <path id="DejaVuSans-49" d="M 628 4666 
L 1259 4666 
L 1259 0 
L 628 0 
L 628 4666 
z
" transform="scale(0.015625)"/>
       <path id="DejaVuSans-6e" d="M 3513 2113 
L 3513 0 
L 2938 0 
L 2938 2094 
Q 2938 2591 2744 2837 
Q 2550 3084 2163 3084 
Q 1697 3084 1428 2787 
Q 1159 2491 1159 1978 
L 1159 0 
L 581 0 
L 581 3500 
L 1159 3500 
L 1159 2956 
Q 1366 3272 1645 3428 
Q 1925 3584 2291 3584 
Q 2894 3584 3203 3211 
Q 3513 2838 3513 2113 
z
" transform="scale(0.015625)"/>
       <path id="DejaVuSans-66" d="M 2375 4863 
L 2375 4384 
L 1825 4384 
Q 1516 4384 1395 4259 
Q 1275 4134 1275 3809 
L 1275 3500 
L 2222 3500 
L 2222 3053 
L 1275 3053 
L 1275 0 
L 697 0 
L 697 3053 
L 147 3053 
L 147 3500 
L 697 3500 
L 697 3744 
Q 697 4328 969 4595 
Q 1241 4863 1831 4863 
L 2375 4863 
z
" transform="scale(0.015625)"/>
       <path id="DejaVuSans-6f" d="M 1959 3097 
Q 1497 3097 1228 2736 
Q 959 2375 959 1747 
Q 959 1119 1226 758 
Q 1494 397 1959 397 
Q 2419 397 2687 759 
Q 2956 1122 2956 1747 
Q 2956 2369 2687 2733 
Q 2419 3097 1959 3097 
z
M 1959 3584 
Q 2709 3584 3137 3096 
Q 3566 2609 3566 1747 
Q 3566 888 3137 398 
Q 2709 -91 1959 -91 
Q 1206 -91 779 398 
Q 353 888 353 1747 
Q 353 2609 779 3096 
Q 1206 3584 1959 3584 
z
" transform="scale(0.015625)"/>
       <path id="DejaVuSans-72" d="M 2631 2963 
Q 2534 3019 2420 3045 
Q 2306 3072 2169 3072 
Q 1681 3072 1420 2755 
Q 1159 2438 1159 1844 
L 1159 0 
L 581 0 
L 581 3500 
L 1159 3500 
L 1159 2956 
Q 1341 3275 1631 3429 
Q 1922 3584 2338 3584 
Q 2397 3584 2469 3576 
Q 2541 3569 2628 3553 
L 2631 2963 
z
" transform="scale(0.015625)"/>
       <path id="DejaVuSans-6d" d="M 3328 2828 
Q 3544 3216 3844 3400 
Q 4144 3584 4550 3584 
Q 5097 3584 5394 3201 
Q 5691 2819 5691 2113 
L 5691 0 
L 5113 0 
L 5113 2094 
Q 5113 2597 4934 2840 
Q 4756 3084 4391 3084 
Q 3944 3084 3684 2787 
Q 3425 2491 3425 1978 
L 3425 0 
L 2847 0 
L 2847 2094 
Q 2847 2600 2669 2842 
Q 2491 3084 2119 3084 
Q 1678 3084 1418 2786 
Q 1159 2488 1159 1978 
L 1159 0 
L 581 0 
L 581 3500 
L 1159 3500 
L 1159 2956 
Q 1356 3278 1631 3431 
Q 1906 3584 2284 3584 
Q 2666 3584 2933 3390 
Q 3200 3197 3328 2828 
z
" transform="scale(0.015625)"/>
       <path id="DejaVuSans-61" d="M 2194 1759 
Q 1497 1759 1228 1600 
Q 959 1441 959 1056 
Q 959 750 1161 570 
Q 1363 391 1709 391 
Q 2188 391 2477 730 
Q 2766 1069 2766 1631 
L 2766 1759 
L 2194 1759 
z
M 3341 1997 
L 3341 0 
L 2766 0 
L 2766 531 
Q 2569 213 2275 61 
Q 1981 -91 1556 -91 
Q 1019 -91 701 211 
Q 384 513 384 1019 
Q 384 1609 779 1909 
Q 1175 2209 1959 2209 
L 2766 2209 
L 2766 2266 
Q 2766 2663 2505 2880 
Q 2244 3097 1772 3097 
Q 1472 3097 1187 3025 
Q 903 2953 641 2809 
L 641 3341 
Q 956 3463 1253 3523 
Q 1550 3584 1831 3584 
Q 2591 3584 2966 3190 
Q 3341 2797 3341 1997 
z
" transform="scale(0.015625)"/>
       <path id="DejaVuSans-74" d="M 1172 4494 
L 1172 3500 
L 2356 3500 
L 2356 3053 
L 1172 3053 
L 1172 1153 
Q 1172 725 1289 603 
Q 1406 481 1766 481 
L 2356 481 
L 2356 0 
L 1766 0 
Q 1100 0 847 248 
Q 594 497 594 1153 
L 594 3053 
L 172 3053 
L 172 3500 
L 594 3500 
L 594 4494 
L 1172 4494 
z
" transform="scale(0.015625)"/>
       <path id="DejaVuSans-69" d="M 603 3500 
L 1178 3500 
L 1178 0 
L 603 0 
L 603 3500 
z
M 603 4863 
L 1178 4863 
L 1178 4134 
L 603 4134 
L 603 4863 
z
" transform="scale(0.015625)"/>
       <path id="DejaVuSans-20" transform="scale(0.015625)"/>
       <path id="DejaVuSans-56" d="M 1831 0 
L 50 4666 
L 709 4666 
L 2188 738 
L 3669 4666 
L 4325 4666 
L 2547 0 
L 1831 0 
z
" transform="scale(0.015625)"/>
       <path id="DejaVuSans-6c" d="M 603 4863 
L 1178 4863 
L 1178 0 
L 603 0 
L 603 4863 
z
" transform="scale(0.015625)"/>
       <path id="DejaVuSans-75" d="M 544 1381 
L 544 3500 
L 1119 3500 
L 1119 1403 
Q 1119 906 1312 657 
Q 1506 409 1894 409 
Q 2359 409 2629 706 
Q 2900 1003 2900 1516 
L 2900 3500 
L 3475 3500 
L 3475 0 
L 2900 0 
L 2900 538 
Q 2691 219 2414 64 
Q 2138 -91 1772 -91 
Q 1169 -91 856 284 
Q 544 659 544 1381 
z
M 1991 3584 
L 1991 3584 
z
" transform="scale(0.015625)"/>
       <path id="DejaVuSans-65" d="M 3597 1894 
L 3597 1613 
L 953 1613 
Q 991 1019 1311 708 
Q 1631 397 2203 397 
Q 2534 397 2845 478 
Q 3156 559 3463 722 
L 3463 178 
Q 3153 47 2828 -22 
Q 2503 -91 2169 -91 
Q 1331 -91 842 396 
Q 353 884 353 1716 
Q 353 2575 817 3079 
Q 1281 3584 2069 3584 
Q 2775 3584 3186 3129 
Q 3597 2675 3597 1894 
z
M 3022 2063 
Q 3016 2534 2758 2815 
Q 2500 3097 2075 3097 
Q 1594 3097 1305 2825 
Q 1016 2553 972 2059 
L 3022 2063 
z
" transform="scale(0.015625)"/>
      </defs>
      <use xlink:href="#DejaVuSans-49"/>
      <use xlink:href="#DejaVuSans-6e" transform="translate(29.492188 0)"/>
      <use xlink:href="#DejaVuSans-66" transform="translate(92.871094 0)"/>
      <use xlink:href="#DejaVuSans-6f" transform="translate(128.076172 0)"/>
      <use xlink:href="#DejaVuSans-72" transform="translate(189.257812 0)"/>
      <use xlink:href="#DejaVuSans-6d" transform="translate(228.621094 0)"/>
      <use xlink:href="#DejaVuSans-61" transform="translate(326.033203 0)"/>
      <use xlink:href="#DejaVuSans-74" transform="translate(387.3125 0)"/>
      <use xlink:href="#DejaVuSans-69" transform="translate(426.521484 0)"/>
      <use xlink:href="#DejaVuSans-6f" transform="translate(454.304688 0)"/>
      <use xlink:href="#DejaVuSans-6e" transform="translate(515.486328 0)"/>
      <use xlink:href="#DejaVuSans-20" transform="translate(578.865234 0)"/>
      <use xlink:href="#DejaVuSans-56" transform="translate(610.652344 0)"/>
      <use xlink:href="#DejaVuSans-61" transform="translate(671.310547 0)"/>
      <use xlink:href="#DejaVuSans-6c" transform="translate(732.589844 0)"/>
      <use xlink:href="#DejaVuSans-75" transform="translate(760.373047 0)"/>
      <use xlink:href="#DejaVuSans-65" transform="translate(823.751953 0)"/>
     </g>
    </g>
   </g>
   <g id="matplotlib.axis_2">
    <g id="ytick_1">
     <g id="line2d_13">
      <defs>
       <path id="m7917fbe4ee" d="M 0 0 
L -3.5 0 
" style="stroke: #000000; stroke-width: 0.8"/>
      </defs>
      <g>
       <use xlink:href="#m7917fbe4ee" x="167.504687" y="319.355001" style="stroke: #000000; stroke-width: 0.8"/>
      </g>
     </g>
     <g id="text_8">
      <!-- DAYS_EMPLOYED -->
      <g transform="translate(75.823437 323.065939) scale(0.1 -0.1)">
       <defs>
        <path id="DejaVuSans-44" d="M 1259 4147 
L 1259 519 
L 2022 519 
Q 2988 519 3436 956 
Q 3884 1394 3884 2338 
Q 3884 3275 3436 3711 
Q 2988 4147 2022 4147 
L 1259 4147 
z
M 628 4666 
L 1925 4666 
Q 3281 4666 3915 4102 
Q 4550 3538 4550 2338 
Q 4550 1131 3912 565 
Q 3275 0 1925 0 
L 628 0 
L 628 4666 
z
" transform="scale(0.015625)"/>
        <path id="DejaVuSans-41" d="M 2188 4044 
L 1331 1722 
L 3047 1722 
L 2188 4044 
z
M 1831 4666 
L 2547 4666 
L 4325 0 
L 3669 0 
L 3244 1197 
L 1141 1197 
L 716 0 
L 50 0 
L 1831 4666 
z
" transform="scale(0.015625)"/>
        <path id="DejaVuSans-59" d="M -13 4666 
L 666 4666 
L 1959 2747 
L 3244 4666 
L 3922 4666 
L 2272 2222 
L 2272 0 
L 1638 0 
L 1638 2222 
L -13 4666 
z
" transform="scale(0.015625)"/>
        <path id="DejaVuSans-53" d="M 3425 4513 
L 3425 3897 
Q 3066 4069 2747 4153 
Q 2428 4238 2131 4238 
Q 1616 4238 1336 4038 
Q 1056 3838 1056 3469 
Q 1056 3159 1242 3001 
Q 1428 2844 1947 2747 
L 2328 2669 
Q 3034 2534 3370 2195 
Q 3706 1856 3706 1288 
Q 3706 609 3251 259 
Q 2797 -91 1919 -91 
Q 1588 -91 1214 -16 
Q 841 59 441 206 
L 441 856 
Q 825 641 1194 531 
Q 1563 422 1919 422 
Q 2459 422 2753 634 
Q 3047 847 3047 1241 
Q 3047 1584 2836 1778 
Q 2625 1972 2144 2069 
L 1759 2144 
Q 1053 2284 737 2584 
Q 422 2884 422 3419 
Q 422 4038 858 4394 
Q 1294 4750 2059 4750 
Q 2388 4750 2728 4690 
Q 3069 4631 3425 4513 
z
" transform="scale(0.015625)"/>
        <path id="DejaVuSans-5f" d="M 3263 -1063 
L 3263 -1509 
L -63 -1509 
L -63 -1063 
L 3263 -1063 
z
" transform="scale(0.015625)"/>
        <path id="DejaVuSans-45" d="M 628 4666 
L 3578 4666 
L 3578 4134 
L 1259 4134 
L 1259 2753 
L 3481 2753 
L 3481 2222 
L 1259 2222 
L 1259 531 
L 3634 531 
L 3634 0 
L 628 0 
L 628 4666 
z
" transform="scale(0.015625)"/>
        <path id="DejaVuSans-4d" d="M 628 4666 
L 1569 4666 
L 2759 1491 
L 3956 4666 
L 4897 4666 
L 4897 0 
L 4281 0 
L 4281 4097 
L 3078 897 
L 2444 897 
L 1241 4097 
L 1241 0 
L 628 0 
L 628 4666 
z
" transform="scale(0.015625)"/>
        <path id="DejaVuSans-50" d="M 1259 4147 
L 1259 2394 
L 2053 2394 
Q 2494 2394 2734 2622 
Q 2975 2850 2975 3272 
Q 2975 3691 2734 3919 
Q 2494 4147 2053 4147 
L 1259 4147 
z
M 628 4666 
L 2053 4666 
Q 2838 4666 3239 4311 
Q 3641 3956 3641 3272 
Q 3641 2581 3239 2228 
Q 2838 1875 2053 1875 
L 1259 1875 
L 1259 0 
L 628 0 
L 628 4666 
z
" transform="scale(0.015625)"/>
        <path id="DejaVuSans-4c" d="M 628 4666 
L 1259 4666 
L 1259 531 
L 3531 531 
L 3531 0 
L 628 0 
L 628 4666 
z
" transform="scale(0.015625)"/>
        <path id="DejaVuSans-4f" d="M 2522 4238 
Q 1834 4238 1429 3725 
Q 1025 3213 1025 2328 
Q 1025 1447 1429 934 
Q 1834 422 2522 422 
Q 3209 422 3611 934 
Q 4013 1447 4013 2328 
Q 4013 3213 3611 3725 
Q 3209 4238 2522 4238 
z
M 2522 4750 
Q 3503 4750 4090 4092 
Q 4678 3434 4678 2328 
Q 4678 1225 4090 567 
Q 3503 -91 2522 -91 
Q 1538 -91 948 565 
Q 359 1222 359 2328 
Q 359 3434 948 4092 
Q 1538 4750 2522 4750 
z
" transform="scale(0.015625)"/>
       </defs>
       <use xlink:href="#DejaVuSans-44"/>
       <use xlink:href="#DejaVuSans-41" transform="translate(75.251953 0)"/>
       <use xlink:href="#DejaVuSans-59" transform="translate(135.910156 0)"/>
       <use xlink:href="#DejaVuSans-53" transform="translate(196.994141 0)"/>
       <use xlink:href="#DejaVuSans-5f" transform="translate(260.470703 0)"/>
       <use xlink:href="#DejaVuSans-45" transform="translate(310.470703 0)"/>
       <use xlink:href="#DejaVuSans-4d" transform="translate(373.654297 0)"/>
       <use xlink:href="#DejaVuSans-50" transform="translate(459.933594 0)"/>
       <use xlink:href="#DejaVuSans-4c" transform="translate(520.236328 0)"/>
       <use xlink:href="#DejaVuSans-4f" transform="translate(572.324219 0)"/>
       <use xlink:href="#DejaVuSans-59" transform="translate(645.535156 0)"/>
       <use xlink:href="#DejaVuSans-45" transform="translate(706.619141 0)"/>
       <use xlink:href="#DejaVuSans-44" transform="translate(769.802734 0)"/>
      </g>
     </g>
    </g>
    <g id="ytick_2">
     <g id="line2d_14">
      <g>
       <use xlink:href="#m7917fbe4ee" x="167.504687" y="281.224465" style="stroke: #000000; stroke-width: 0.8"/>
      </g>
     </g>
     <g id="text_9">
      <!-- CREDIT_EXT_SOURCE_3_RATIO -->
      <g transform="translate(7.2 284.935403) scale(0.1 -0.1)">
       <defs>
        <path id="DejaVuSans-43" d="M 4122 4306 
L 4122 3641 
Q 3803 3938 3442 4084 
Q 3081 4231 2675 4231 
Q 1875 4231 1450 3742 
Q 1025 3253 1025 2328 
Q 1025 1406 1450 917 
Q 1875 428 2675 428 
Q 3081 428 3442 575 
Q 3803 722 4122 1019 
L 4122 359 
Q 3791 134 3420 21 
Q 3050 -91 2638 -91 
Q 1578 -91 968 557 
Q 359 1206 359 2328 
Q 359 3453 968 4101 
Q 1578 4750 2638 4750 
Q 3056 4750 3426 4639 
Q 3797 4528 4122 4306 
z
" transform="scale(0.015625)"/>
        <path id="DejaVuSans-52" d="M 2841 2188 
Q 3044 2119 3236 1894 
Q 3428 1669 3622 1275 
L 4263 0 
L 3584 0 
L 2988 1197 
Q 2756 1666 2539 1819 
Q 2322 1972 1947 1972 
L 1259 1972 
L 1259 0 
L 628 0 
L 628 4666 
L 2053 4666 
Q 2853 4666 3247 4331 
Q 3641 3997 3641 3322 
Q 3641 2881 3436 2590 
Q 3231 2300 2841 2188 
z
M 1259 4147 
L 1259 2491 
L 2053 2491 
Q 2509 2491 2742 2702 
Q 2975 2913 2975 3322 
Q 2975 3731 2742 3939 
Q 2509 4147 2053 4147 
L 1259 4147 
z
" transform="scale(0.015625)"/>
        <path id="DejaVuSans-54" d="M -19 4666 
L 3928 4666 
L 3928 4134 
L 2272 4134 
L 2272 0 
L 1638 0 
L 1638 4134 
L -19 4134 
L -19 4666 
z
" transform="scale(0.015625)"/>
        <path id="DejaVuSans-58" d="M 403 4666 
L 1081 4666 
L 2241 2931 
L 3406 4666 
L 4084 4666 
L 2584 2425 
L 4184 0 
L 3506 0 
L 2194 1984 
L 872 0 
L 191 0 
L 1856 2491 
L 403 4666 
z
" transform="scale(0.015625)"/>
        <path id="DejaVuSans-55" d="M 556 4666 
L 1191 4666 
L 1191 1831 
Q 1191 1081 1462 751 
Q 1734 422 2344 422 
Q 2950 422 3222 751 
Q 3494 1081 3494 1831 
L 3494 4666 
L 4128 4666 
L 4128 1753 
Q 4128 841 3676 375 
Q 3225 -91 2344 -91 
Q 1459 -91 1007 375 
Q 556 841 556 1753 
L 556 4666 
z
" transform="scale(0.015625)"/>
        <path id="DejaVuSans-33" d="M 2597 2516 
Q 3050 2419 3304 2112 
Q 3559 1806 3559 1356 
Q 3559 666 3084 287 
Q 2609 -91 1734 -91 
Q 1441 -91 1130 -33 
Q 819 25 488 141 
L 488 750 
Q 750 597 1062 519 
Q 1375 441 1716 441 
Q 2309 441 2620 675 
Q 2931 909 2931 1356 
Q 2931 1769 2642 2001 
Q 2353 2234 1838 2234 
L 1294 2234 
L 1294 2753 
L 1863 2753 
Q 2328 2753 2575 2939 
Q 2822 3125 2822 3475 
Q 2822 3834 2567 4026 
Q 2313 4219 1838 4219 
Q 1578 4219 1281 4162 
Q 984 4106 628 3988 
L 628 4550 
Q 988 4650 1302 4700 
Q 1616 4750 1894 4750 
Q 2613 4750 3031 4423 
Q 3450 4097 3450 3541 
Q 3450 3153 3228 2886 
Q 3006 2619 2597 2516 
z
" transform="scale(0.015625)"/>
       </defs>
       <use xlink:href="#DejaVuSans-43"/>
       <use xlink:href="#DejaVuSans-52" transform="translate(69.824219 0)"/>
       <use xlink:href="#DejaVuSans-45" transform="translate(139.306641 0)"/>
       <use xlink:href="#DejaVuSans-44" transform="translate(202.490234 0)"/>
       <use xlink:href="#DejaVuSans-49" transform="translate(279.492188 0)"/>
       <use xlink:href="#DejaVuSans-54" transform="translate(308.984375 0)"/>
       <use xlink:href="#DejaVuSans-5f" transform="translate(370.068359 0)"/>
       <use xlink:href="#DejaVuSans-45" transform="translate(420.068359 0)"/>
       <use xlink:href="#DejaVuSans-58" transform="translate(483.251953 0)"/>
       <use xlink:href="#DejaVuSans-54" transform="translate(550.007812 0)"/>
       <use xlink:href="#DejaVuSans-5f" transform="translate(611.091797 0)"/>
       <use xlink:href="#DejaVuSans-53" transform="translate(661.091797 0)"/>
       <use xlink:href="#DejaVuSans-4f" transform="translate(724.568359 0)"/>
       <use xlink:href="#DejaVuSans-55" transform="translate(803.279297 0)"/>
       <use xlink:href="#DejaVuSans-52" transform="translate(876.472656 0)"/>
       <use xlink:href="#DejaVuSans-43" transform="translate(940.955078 0)"/>
       <use xlink:href="#DejaVuSans-45" transform="translate(1010.779297 0)"/>
       <use xlink:href="#DejaVuSans-5f" transform="translate(1073.962891 0)"/>
       <use xlink:href="#DejaVuSans-33" transform="translate(1123.962891 0)"/>
       <use xlink:href="#DejaVuSans-5f" transform="translate(1187.585938 0)"/>
       <use xlink:href="#DejaVuSans-52" transform="translate(1237.585938 0)"/>
       <use xlink:href="#DejaVuSans-41" transform="translate(1303.068359 0)"/>
       <use xlink:href="#DejaVuSans-54" transform="translate(1363.726562 0)"/>
       <use xlink:href="#DejaVuSans-49" transform="translate(1424.810547 0)"/>
       <use xlink:href="#DejaVuSans-4f" transform="translate(1454.302734 0)"/>
      </g>
     </g>
    </g>
    <g id="ytick_3">
     <g id="line2d_15">
      <g>
       <use xlink:href="#m7917fbe4ee" x="167.504687" y="243.093929" style="stroke: #000000; stroke-width: 0.8"/>
      </g>
     </g>
     <g id="text_10">
      <!-- DAYS_BIRTH -->
      <g transform="translate(99.795312 246.804867) scale(0.1 -0.1)">
       <defs>
        <path id="DejaVuSans-42" d="M 1259 2228 
L 1259 519 
L 2272 519 
Q 2781 519 3026 730 
Q 3272 941 3272 1375 
Q 3272 1813 3026 2020 
Q 2781 2228 2272 2228 
L 1259 2228 
z
M 1259 4147 
L 1259 2741 
L 2194 2741 
Q 2656 2741 2882 2914 
Q 3109 3088 3109 3444 
Q 3109 3797 2882 3972 
Q 2656 4147 2194 4147 
L 1259 4147 
z
M 628 4666 
L 2241 4666 
Q 2963 4666 3353 4366 
Q 3744 4066 3744 3513 
Q 3744 3084 3544 2831 
Q 3344 2578 2956 2516 
Q 3422 2416 3680 2098 
Q 3938 1781 3938 1306 
Q 3938 681 3513 340 
Q 3088 0 2303 0 
L 628 0 
L 628 4666 
z
" transform="scale(0.015625)"/>
        <path id="DejaVuSans-48" d="M 628 4666 
L 1259 4666 
L 1259 2753 
L 3553 2753 
L 3553 4666 
L 4184 4666 
L 4184 0 
L 3553 0 
L 3553 2222 
L 1259 2222 
L 1259 0 
L 628 0 
L 628 4666 
z
" transform="scale(0.015625)"/>
       </defs>
       <use xlink:href="#DejaVuSans-44"/>
       <use xlink:href="#DejaVuSans-41" transform="translate(75.251953 0)"/>
       <use xlink:href="#DejaVuSans-59" transform="translate(135.910156 0)"/>
       <use xlink:href="#DejaVuSans-53" transform="translate(196.994141 0)"/>
       <use xlink:href="#DejaVuSans-5f" transform="translate(260.470703 0)"/>
       <use xlink:href="#DejaVuSans-42" transform="translate(310.470703 0)"/>
       <use xlink:href="#DejaVuSans-49" transform="translate(379.074219 0)"/>
       <use xlink:href="#DejaVuSans-52" transform="translate(408.566406 0)"/>
       <use xlink:href="#DejaVuSans-54" transform="translate(470.798828 0)"/>
       <use xlink:href="#DejaVuSans-48" transform="translate(531.882812 0)"/>
      </g>
     </g>
    </g>
    <g id="ytick_4">
     <g id="line2d_16">
      <g>
       <use xlink:href="#m7917fbe4ee" x="167.504687" y="204.963393" style="stroke: #000000; stroke-width: 0.8"/>
      </g>
     </g>
     <g id="text_11">
      <!-- EXT_SOURCE_1 -->
      <g transform="translate(83.751562 208.674331) scale(0.1 -0.1)">
       <use xlink:href="#DejaVuSans-45"/>
       <use xlink:href="#DejaVuSans-58" transform="translate(63.183594 0)"/>
       <use xlink:href="#DejaVuSans-54" transform="translate(129.939453 0)"/>
       <use xlink:href="#DejaVuSans-5f" transform="translate(191.023438 0)"/>
       <use xlink:href="#DejaVuSans-53" transform="translate(241.023438 0)"/>
       <use xlink:href="#DejaVuSans-4f" transform="translate(304.5 0)"/>
       <use xlink:href="#DejaVuSans-55" transform="translate(383.210938 0)"/>
       <use xlink:href="#DejaVuSans-52" transform="translate(456.404297 0)"/>
       <use xlink:href="#DejaVuSans-43" transform="translate(520.886719 0)"/>
       <use xlink:href="#DejaVuSans-45" transform="translate(590.710938 0)"/>
       <use xlink:href="#DejaVuSans-5f" transform="translate(653.894531 0)"/>
       <use xlink:href="#DejaVuSans-31" transform="translate(703.894531 0)"/>
      </g>
     </g>
    </g>
    <g id="ytick_5">
     <g id="line2d_17">
      <g>
       <use xlink:href="#m7917fbe4ee" x="167.504687" y="166.832857" style="stroke: #000000; stroke-width: 0.8"/>
      </g>
     </g>
     <g id="text_12">
      <!-- EXT_SOURCE_3 -->
      <g transform="translate(83.751562 170.543794) scale(0.1 -0.1)">
       <use xlink:href="#DejaVuSans-45"/>
       <use xlink:href="#DejaVuSans-58" transform="translate(63.183594 0)"/>
       <use xlink:href="#DejaVuSans-54" transform="translate(129.939453 0)"/>
       <use xlink:href="#DejaVuSans-5f" transform="translate(191.023438 0)"/>
       <use xlink:href="#DejaVuSans-53" transform="translate(241.023438 0)"/>
       <use xlink:href="#DejaVuSans-4f" transform="translate(304.5 0)"/>
       <use xlink:href="#DejaVuSans-55" transform="translate(383.210938 0)"/>
       <use xlink:href="#DejaVuSans-52" transform="translate(456.404297 0)"/>
       <use xlink:href="#DejaVuSans-43" transform="translate(520.886719 0)"/>
       <use xlink:href="#DejaVuSans-45" transform="translate(590.710938 0)"/>
       <use xlink:href="#DejaVuSans-5f" transform="translate(653.894531 0)"/>
       <use xlink:href="#DejaVuSans-33" transform="translate(703.894531 0)"/>
      </g>
     </g>
    </g>
    <g id="ytick_6">
     <g id="line2d_18">
      <g>
       <use xlink:href="#m7917fbe4ee" x="167.504687" y="128.702321" style="stroke: #000000; stroke-width: 0.8"/>
      </g>
     </g>
     <g id="text_13">
      <!-- bureau_total_debt_ratio -->
      <g transform="translate(41.621875 132.50154) scale(0.1 -0.1)">
       <defs>
        <path id="DejaVuSans-62" d="M 3116 1747 
Q 3116 2381 2855 2742 
Q 2594 3103 2138 3103 
Q 1681 3103 1420 2742 
Q 1159 2381 1159 1747 
Q 1159 1113 1420 752 
Q 1681 391 2138 391 
Q 2594 391 2855 752 
Q 3116 1113 3116 1747 
z
M 1159 2969 
Q 1341 3281 1617 3432 
Q 1894 3584 2278 3584 
Q 2916 3584 3314 3078 
Q 3713 2572 3713 1747 
Q 3713 922 3314 415 
Q 2916 -91 2278 -91 
Q 1894 -91 1617 61 
Q 1341 213 1159 525 
L 1159 0 
L 581 0 
L 581 4863 
L 1159 4863 
L 1159 2969 
z
" transform="scale(0.015625)"/>
        <path id="DejaVuSans-64" d="M 2906 2969 
L 2906 4863 
L 3481 4863 
L 3481 0 
L 2906 0 
L 2906 525 
Q 2725 213 2448 61 
Q 2172 -91 1784 -91 
Q 1150 -91 751 415 
Q 353 922 353 1747 
Q 353 2572 751 3078 
Q 1150 3584 1784 3584 
Q 2172 3584 2448 3432 
Q 2725 3281 2906 2969 
z
M 947 1747 
Q 947 1113 1208 752 
Q 1469 391 1925 391 
Q 2381 391 2643 752 
Q 2906 1113 2906 1747 
Q 2906 2381 2643 2742 
Q 2381 3103 1925 3103 
Q 1469 3103 1208 2742 
Q 947 2381 947 1747 
z
" transform="scale(0.015625)"/>
       </defs>
       <use xlink:href="#DejaVuSans-62"/>
       <use xlink:href="#DejaVuSans-75" transform="translate(63.476562 0)"/>
       <use xlink:href="#DejaVuSans-72" transform="translate(126.855469 0)"/>
       <use xlink:href="#DejaVuSans-65" transform="translate(165.71875 0)"/>
       <use xlink:href="#DejaVuSans-61" transform="translate(227.242188 0)"/>
       <use xlink:href="#DejaVuSans-75" transform="translate(288.521484 0)"/>
       <use xlink:href="#DejaVuSans-5f" transform="translate(351.900391 0)"/>
       <use xlink:href="#DejaVuSans-74" transform="translate(401.900391 0)"/>
       <use xlink:href="#DejaVuSans-6f" transform="translate(441.109375 0)"/>
       <use xlink:href="#DejaVuSans-74" transform="translate(502.291016 0)"/>
       <use xlink:href="#DejaVuSans-61" transform="translate(541.5 0)"/>
       <use xlink:href="#DejaVuSans-6c" transform="translate(602.779297 0)"/>
       <use xlink:href="#DejaVuSans-5f" transform="translate(630.5625 0)"/>
       <use xlink:href="#DejaVuSans-64" transform="translate(680.5625 0)"/>
       <use xlink:href="#DejaVuSans-65" transform="translate(744.039062 0)"/>
       <use xlink:href="#DejaVuSans-62" transform="translate(805.5625 0)"/>
       <use xlink:href="#DejaVuSans-74" transform="translate(869.039062 0)"/>
       <use xlink:href="#DejaVuSans-5f" transform="translate(908.248047 0)"/>
       <use xlink:href="#DejaVuSans-72" transform="translate(958.248047 0)"/>
       <use xlink:href="#DejaVuSans-61" transform="translate(999.361328 0)"/>
       <use xlink:href="#DejaVuSans-74" transform="translate(1060.640625 0)"/>
       <use xlink:href="#DejaVuSans-69" transform="translate(1099.849609 0)"/>
       <use xlink:href="#DejaVuSans-6f" transform="translate(1127.632812 0)"/>
      </g>
     </g>
    </g>
    <g id="ytick_7">
     <g id="line2d_19">
      <g>
       <use xlink:href="#m7917fbe4ee" x="167.504687" y="90.571785" style="stroke: #000000; stroke-width: 0.8"/>
      </g>
     </g>
     <g id="text_14">
      <!-- EXT_SOURCE_2 -->
      <g transform="translate(83.751562 94.282722) scale(0.1 -0.1)">
       <use xlink:href="#DejaVuSans-45"/>
       <use xlink:href="#DejaVuSans-58" transform="translate(63.183594 0)"/>
       <use xlink:href="#DejaVuSans-54" transform="translate(129.939453 0)"/>
       <use xlink:href="#DejaVuSans-5f" transform="translate(191.023438 0)"/>
       <use xlink:href="#DejaVuSans-53" transform="translate(241.023438 0)"/>
       <use xlink:href="#DejaVuSans-4f" transform="translate(304.5 0)"/>
       <use xlink:href="#DejaVuSans-55" transform="translate(383.210938 0)"/>
       <use xlink:href="#DejaVuSans-52" transform="translate(456.404297 0)"/>
       <use xlink:href="#DejaVuSans-43" transform="translate(520.886719 0)"/>
       <use xlink:href="#DejaVuSans-45" transform="translate(590.710938 0)"/>
       <use xlink:href="#DejaVuSans-5f" transform="translate(653.894531 0)"/>
       <use xlink:href="#DejaVuSans-32" transform="translate(703.894531 0)"/>
      </g>
     </g>
    </g>
    <g id="ytick_8">
     <g id="line2d_20">
      <g>
       <use xlink:href="#m7917fbe4ee" x="167.504687" y="52.441249" style="stroke: #000000; stroke-width: 0.8"/>
      </g>
     </g>
     <g id="text_15">
      <!-- EXT_SOURCE_MEAN -->
      <g transform="translate(60.845312 56.152186) scale(0.1 -0.1)">
       <defs>
        <path id="DejaVuSans-4e" d="M 628 4666 
L 1478 4666 
L 3547 763 
L 3547 4666 
L 4159 4666 
L 4159 0 
L 3309 0 
L 1241 3903 
L 1241 0 
L 628 0 
L 628 4666 
z
" transform="scale(0.015625)"/>
       </defs>
       <use xlink:href="#DejaVuSans-45"/>
       <use xlink:href="#DejaVuSans-58" transform="translate(63.183594 0)"/>
       <use xlink:href="#DejaVuSans-54" transform="translate(129.939453 0)"/>
       <use xlink:href="#DejaVuSans-5f" transform="translate(191.023438 0)"/>
       <use xlink:href="#DejaVuSans-53" transform="translate(241.023438 0)"/>
       <use xlink:href="#DejaVuSans-4f" transform="translate(304.5 0)"/>
       <use xlink:href="#DejaVuSans-55" transform="translate(383.210938 0)"/>
       <use xlink:href="#DejaVuSans-52" transform="translate(456.404297 0)"/>
       <use xlink:href="#DejaVuSans-43" transform="translate(520.886719 0)"/>
       <use xlink:href="#DejaVuSans-45" transform="translate(590.710938 0)"/>
       <use xlink:href="#DejaVuSans-5f" transform="translate(653.894531 0)"/>
       <use xlink:href="#DejaVuSans-4d" transform="translate(703.894531 0)"/>
       <use xlink:href="#DejaVuSans-45" transform="translate(790.173828 0)"/>
       <use xlink:href="#DejaVuSans-41" transform="translate(853.357422 0)"/>
       <use xlink:href="#DejaVuSans-4e" transform="translate(921.765625 0)"/>
      </g>
     </g>
    </g>
   </g>
   <g id="patch_11">
    <path d="M 167.504687 349.478125 
L 167.504687 22.318125 
" style="fill: none; stroke: #000000; stroke-width: 0.8; stroke-linejoin: miter; stroke-linecap: square"/>
   </g>
   <g id="patch_12">
    <path d="M 426.319687 349.478125 
L 426.319687 22.318125 
" style="fill: none; stroke: #000000; stroke-width: 0.8; stroke-linejoin: miter; stroke-linecap: square"/>
   </g>
   <g id="patch_13">
    <path d="M 167.504687 349.478125 
L 426.319687 349.478125 
" style="fill: none; stroke: #000000; stroke-width: 0.8; stroke-linejoin: miter; stroke-linecap: square"/>
   </g>
   <g id="patch_14">
    <path d="M 167.504687 22.318125 
L 426.319687 22.318125 
" style="fill: none; stroke: #000000; stroke-width: 0.8; stroke-linejoin: miter; stroke-linecap: square"/>
   </g>
   <g id="text_16">
    <!-- Top Scorecard Features by IV -->
    <g transform="translate(210.182187 16.318125) scale(0.12 -0.12)">
     <defs>
      <path id="DejaVuSans-70" d="M 1159 525 
L 1159 -1331 
L 581 -1331 
L 581 3500 
L 1159 3500 
L 1159 2969 
Q 1341 3281 1617 3432 
Q 1894 3584 2278 3584 
Q 2916 3584 3314 3078 
Q 3713 2572 3713 1747 
Q 3713 922 3314 415 
Q 2916 -91 2278 -91 
Q 1894 -91 1617 61 
Q 1341 213 1159 525 
z
M 3116 1747 
Q 3116 2381 2855 2742 
Q 2594 3103 2138 3103 
Q 1681 3103 1420 2742 
Q 1159 2381 1159 1747 
Q 1159 1113 1420 752 
Q 1681 391 2138 391 
Q 2594 391 2855 752 
Q 3116 1113 3116 1747 
z
" transform="scale(0.015625)"/>
      <path id="DejaVuSans-63" d="M 3122 3366 
L 3122 2828 
Q 2878 2963 2633 3030 
Q 2388 3097 2138 3097 
Q 1578 3097 1268 2742 
Q 959 2388 959 1747 
Q 959 1106 1268 751 
Q 1578 397 2138 397 
Q 2388 397 2633 464 
Q 2878 531 3122 666 
L 3122 134 
Q 2881 22 2623 -34 
Q 2366 -91 2075 -91 
Q 1284 -91 818 406 
Q 353 903 353 1747 
Q 353 2603 823 3093 
Q 1294 3584 2113 3584 
Q 2378 3584 2631 3529 
Q 2884 3475 3122 3366 
z
" transform="scale(0.015625)"/>
      <path id="DejaVuSans-46" d="M 628 4666 
L 3309 4666 
L 3309 4134 
L 1259 4134 
L 1259 2759 
L 3109 2759 
L 3109 2228 
L 1259 2228 
L 1259 0 
L 628 0 
L 628 4666 
z
" transform="scale(0.015625)"/>
      <path id="DejaVuSans-73" d="M 2834 3397 
L 2834 2853 
Q 2591 2978 2328 3040 
Q 2066 3103 1784 3103 
Q 1356 3103 1142 2972 
Q 928 2841 928 2578 
Q 928 2378 1081 2264 
Q 1234 2150 1697 2047 
L 1894 2003 
Q 2506 1872 2764 1633 
Q 3022 1394 3022 966 
Q 3022 478 2636 193 
Q 2250 -91 1575 -91 
Q 1294 -91 989 -36 
Q 684 19 347 128 
L 347 722 
Q 666 556 975 473 
Q 1284 391 1588 391 
Q 1994 391 2212 530 
Q 2431 669 2431 922 
Q 2431 1156 2273 1281 
Q 2116 1406 1581 1522 
L 1381 1569 
Q 847 1681 609 1914 
Q 372 2147 372 2553 
Q 372 3047 722 3315 
Q 1072 3584 1716 3584 
Q 2034 3584 2315 3537 
Q 2597 3491 2834 3397 
z
" transform="scale(0.015625)"/>
      <path id="DejaVuSans-79" d="M 2059 -325 
Q 1816 -950 1584 -1140 
Q 1353 -1331 966 -1331 
L 506 -1331 
L 506 -850 
L 844 -850 
Q 1081 -850 1212 -737 
Q 1344 -625 1503 -206 
L 1606 56 
L 191 3500 
L 800 3500 
L 1894 763 
L 2988 3500 
L 3597 3500 
L 2059 -325 
z
" transform="scale(0.015625)"/>
     </defs>
     <use xlink:href="#DejaVuSans-54"/>
     <use xlink:href="#DejaVuSans-6f" transform="translate(44.083984 0)"/>
     <use xlink:href="#DejaVuSans-70" transform="translate(105.265625 0)"/>
     <use xlink:href="#DejaVuSans-20" transform="translate(168.742188 0)"/>
     <use xlink:href="#DejaVuSans-53" transform="translate(200.529297 0)"/>
     <use xlink:href="#DejaVuSans-63" transform="translate(264.005859 0)"/>
     <use xlink:href="#DejaVuSans-6f" transform="translate(318.986328 0)"/>
     <use xlink:href="#DejaVuSans-72" transform="translate(380.167969 0)"/>
     <use xlink:href="#DejaVuSans-65" transform="translate(419.03125 0)"/>
     <use xlink:href="#DejaVuSans-63" transform="translate(480.554688 0)"/>
     <use xlink:href="#DejaVuSans-61" transform="translate(535.535156 0)"/>
     <use xlink:href="#DejaVuSans-72" transform="translate(596.814453 0)"/>
     <use xlink:href="#DejaVuSans-64" transform="translate(636.177734 0)"/>
     <use xlink:href="#DejaVuSans-20" transform="translate(699.654297 0)"/>
     <use xlink:href="#DejaVuSans-46" transform="translate(731.441406 0)"/>
     <use xlink:href="#DejaVuSans-65" transform="translate(783.460938 0)"/>
     <use xlink:href="#DejaVuSans-61" transform="translate(844.984375 0)"/>
     <use xlink:href="#DejaVuSans-74" transform="translate(906.263672 0)"/>
     <use xlink:href="#DejaVuSans-75" transform="translate(945.472656 0)"/>
     <use xlink:href="#DejaVuSans-72" transform="translate(1008.851562 0)"/>
     <use xlink:href="#DejaVuSans-65" transform="translate(1047.714844 0)"/>
     <use xlink:href="#DejaVuSans-73" transform="translate(1109.238281 0)"/>
     <use xlink:href="#DejaVuSans-20" transform="translate(1161.337891 0)"/>
     <use xlink:href="#DejaVuSans-62" transform="translate(1193.125 0)"/>
     <use xlink:href="#DejaVuSans-79" transform="translate(1256.601562 0)"/>
     <use xlink:href="#DejaVuSans-20" transform="translate(1315.78125 0)"/>
     <use xlink:href="#DejaVuSans-49" transform="translate(1347.568359 0)"/>
     <use xlink:href="#DejaVuSans-56" transform="translate(1377.060547 0)"/>
    </g>
   </g>
  </g>
  <g id="axes_2">
   <g id="patch_15">
    <path d="M 662.999687 349.478125 
L 921.814687 349.478125 
L 921.814687 22.318125 
L 662.999687 22.318125 
z
" style="fill: #ffffff"/>
   </g>
   <g id="patch_16">
    <path d="M 662.999687 334.607216 
L 774.64524 334.607216 
L 774.64524 304.102787 
L 662.999687 304.102787 
z
" clip-path="url(#p141e7e7cea)" style="fill: #b74b47"/>
   </g>
   <g id="patch_17">
    <path d="M 662.999687 296.47668 
L 793.024165 296.47668 
L 793.024165 265.972251 
L 662.999687 265.972251 
z
" clip-path="url(#p141e7e7cea)" style="fill: #b74b47"/>
   </g>
   <g id="patch_18">
    <path d="M 662.999687 258.346144 
L 801.661621 258.346144 
L 801.661621 227.841715 
L 662.999687 227.841715 
z
" clip-path="url(#p141e7e7cea)" style="fill: #b74b47"/>
   </g>
   <g id="patch_19">
    <path d="M 662.999687 220.215608 
L 820.04577 220.215608 
L 820.04577 189.711179 
L 662.999687 189.711179 
z
" clip-path="url(#p141e7e7cea)" style="fill: #b74b47"/>
   </g>
   <g id="patch_20">
    <path d="M 662.999687 182.085071 
L 831.628464 182.085071 
L 831.628464 151.580642 
L 662.999687 151.580642 
z
" clip-path="url(#p141e7e7cea)" style="fill: #b74b47"/>
   </g>
   <g id="patch_21">
    <path d="M 662.999687 143.954535 
L 838.527662 143.954535 
L 838.527662 113.450106 
L 662.999687 113.450106 
z
" clip-path="url(#p141e7e7cea)" style="fill: #b74b47"/>
   </g>
   <g id="patch_22">
    <path d="M 662.999687 105.823999 
L 865.381858 105.823999 
L 865.381858 75.31957 
L 662.999687 75.31957 
z
" clip-path="url(#p141e7e7cea)" style="fill: #b74b47"/>
   </g>
   <g id="patch_23">
    <path d="M 662.999687 67.693463 
L 909.490164 67.693463 
L 909.490164 37.189034 
L 662.999687 37.189034 
z
" clip-path="url(#p141e7e7cea)" style="fill: #b74b47"/>
   </g>
   <g id="matplotlib.axis_3">
    <g id="xtick_7">
     <g id="line2d_21">
      <path d="M 662.999687 349.478125 
L 662.999687 22.318125 
" clip-path="url(#p141e7e7cea)" style="fill: none; stroke: #b0b0b0; stroke-opacity: 0.2; stroke-width: 0.8; stroke-linecap: square"/>
     </g>
     <g id="line2d_22">
      <g>
       <use xlink:href="#me5689abb99" x="662.999687" y="349.478125" style="stroke: #000000; stroke-width: 0.8"/>
      </g>
     </g>
     <g id="text_17">
      <!-- 0.00 -->
      <g transform="translate(651.866875 364.076562) scale(0.1 -0.1)">
       <use xlink:href="#DejaVuSans-30"/>
       <use xlink:href="#DejaVuSans-2e" transform="translate(63.623047 0)"/>
       <use xlink:href="#DejaVuSans-30" transform="translate(95.410156 0)"/>
       <use xlink:href="#DejaVuSans-30" transform="translate(159.033203 0)"/>
      </g>
     </g>
    </g>
    <g id="xtick_8">
     <g id="line2d_23">
      <path d="M 720.051609 349.478125 
L 720.051609 22.318125 
" clip-path="url(#p141e7e7cea)" style="fill: none; stroke: #b0b0b0; stroke-opacity: 0.2; stroke-width: 0.8; stroke-linecap: square"/>
     </g>
     <g id="line2d_24">
      <g>
       <use xlink:href="#me5689abb99" x="720.051609" y="349.478125" style="stroke: #000000; stroke-width: 0.8"/>
      </g>
     </g>
     <g id="text_18">
      <!-- 0.02 -->
      <g transform="translate(708.918797 364.076562) scale(0.1 -0.1)">
       <use xlink:href="#DejaVuSans-30"/>
       <use xlink:href="#DejaVuSans-2e" transform="translate(63.623047 0)"/>
       <use xlink:href="#DejaVuSans-30" transform="translate(95.410156 0)"/>
       <use xlink:href="#DejaVuSans-32" transform="translate(159.033203 0)"/>
      </g>
     </g>
    </g>
    <g id="xtick_9">
     <g id="line2d_25">
      <path d="M 777.103531 349.478125 
L 777.103531 22.318125 
" clip-path="url(#p141e7e7cea)" style="fill: none; stroke: #b0b0b0; stroke-opacity: 0.2; stroke-width: 0.8; stroke-linecap: square"/>
     </g>
     <g id="line2d_26">
      <g>
       <use xlink:href="#me5689abb99" x="777.103531" y="349.478125" style="stroke: #000000; stroke-width: 0.8"/>
      </g>
     </g>
     <g id="text_19">
      <!-- 0.04 -->
      <g transform="translate(765.970719 364.076562) scale(0.1 -0.1)">
       <use xlink:href="#DejaVuSans-30"/>
       <use xlink:href="#DejaVuSans-2e" transform="translate(63.623047 0)"/>
       <use xlink:href="#DejaVuSans-30" transform="translate(95.410156 0)"/>
       <use xlink:href="#DejaVuSans-34" transform="translate(159.033203 0)"/>
      </g>
     </g>
    </g>
    <g id="xtick_10">
     <g id="line2d_27">
      <path d="M 834.155453 349.478125 
L 834.155453 22.318125 
" clip-path="url(#p141e7e7cea)" style="fill: none; stroke: #b0b0b0; stroke-opacity: 0.2; stroke-width: 0.8; stroke-linecap: square"/>
     </g>
     <g id="line2d_28">
      <g>
       <use xlink:href="#me5689abb99" x="834.155453" y="349.478125" style="stroke: #000000; stroke-width: 0.8"/>
      </g>
     </g>
     <g id="text_20">
      <!-- 0.06 -->
      <g transform="translate(823.02264 364.076562) scale(0.1 -0.1)">
       <use xlink:href="#DejaVuSans-30"/>
       <use xlink:href="#DejaVuSans-2e" transform="translate(63.623047 0)"/>
       <use xlink:href="#DejaVuSans-30" transform="translate(95.410156 0)"/>
       <use xlink:href="#DejaVuSans-36" transform="translate(159.033203 0)"/>
      </g>
     </g>
    </g>
    <g id="xtick_11">
     <g id="line2d_29">
      <path d="M 891.207375 349.478125 
L 891.207375 22.318125 
" clip-path="url(#p141e7e7cea)" style="fill: none; stroke: #b0b0b0; stroke-opacity: 0.2; stroke-width: 0.8; stroke-linecap: square"/>
     </g>
     <g id="line2d_30">
      <g>
       <use xlink:href="#me5689abb99" x="891.207375" y="349.478125" style="stroke: #000000; stroke-width: 0.8"/>
      </g>
     </g>
     <g id="text_21">
      <!-- 0.08 -->
      <g transform="translate(880.074562 364.076562) scale(0.1 -0.1)">
       <use xlink:href="#DejaVuSans-30"/>
       <use xlink:href="#DejaVuSans-2e" transform="translate(63.623047 0)"/>
       <use xlink:href="#DejaVuSans-30" transform="translate(95.410156 0)"/>
       <use xlink:href="#DejaVuSans-38" transform="translate(159.033203 0)"/>
      </g>
     </g>
    </g>
    <g id="text_22">
     <!-- Population Stability Index -->
     <g transform="translate(728.736875 377.754687) scale(0.1 -0.1)">
      <defs>
       <path id="DejaVuSans-78" d="M 3513 3500 
L 2247 1797 
L 3578 0 
L 2900 0 
L 1881 1375 
L 863 0 
L 184 0 
L 1544 1831 
L 300 3500 
L 978 3500 
L 1906 2253 
L 2834 3500 
L 3513 3500 
z
" transform="scale(0.015625)"/>
      </defs>
      <use xlink:href="#DejaVuSans-50"/>
      <use xlink:href="#DejaVuSans-6f" transform="translate(56.677734 0)"/>
      <use xlink:href="#DejaVuSans-70" transform="translate(117.859375 0)"/>
      <use xlink:href="#DejaVuSans-75" transform="translate(181.335938 0)"/>
      <use xlink:href="#DejaVuSans-6c" transform="translate(244.714844 0)"/>
      <use xlink:href="#DejaVuSans-61" transform="translate(272.498047 0)"/>
      <use xlink:href="#DejaVuSans-74" transform="translate(333.777344 0)"/>
      <use xlink:href="#DejaVuSans-69" transform="translate(372.986328 0)"/>
      <use xlink:href="#DejaVuSans-6f" transform="translate(400.769531 0)"/>
      <use xlink:href="#DejaVuSans-6e" transform="translate(461.951172 0)"/>
      <use xlink:href="#DejaVuSans-20" transform="translate(525.330078 0)"/>
      <use xlink:href="#DejaVuSans-53" transform="translate(557.117188 0)"/>
      <use xlink:href="#DejaVuSans-74" transform="translate(620.59375 0)"/>
      <use xlink:href="#DejaVuSans-61" transform="translate(659.802734 0)"/>
      <use xlink:href="#DejaVuSans-62" transform="translate(721.082031 0)"/>
      <use xlink:href="#DejaVuSans-69" transform="translate(784.558594 0)"/>
      <use xlink:href="#DejaVuSans-6c" transform="translate(812.341797 0)"/>
      <use xlink:href="#DejaVuSans-69" transform="translate(840.125 0)"/>
      <use xlink:href="#DejaVuSans-74" transform="translate(867.908203 0)"/>
      <use xlink:href="#DejaVuSans-79" transform="translate(907.117188 0)"/>
      <use xlink:href="#DejaVuSans-20" transform="translate(966.296875 0)"/>
      <use xlink:href="#DejaVuSans-49" transform="translate(998.083984 0)"/>
      <use xlink:href="#DejaVuSans-6e" transform="translate(1027.576172 0)"/>
      <use xlink:href="#DejaVuSans-64" transform="translate(1090.955078 0)"/>
      <use xlink:href="#DejaVuSans-65" transform="translate(1154.431641 0)"/>
      <use xlink:href="#DejaVuSans-78" transform="translate(1214.205078 0)"/>
     </g>
    </g>
   </g>
   <g id="matplotlib.axis_4">
    <g id="ytick_9">
     <g id="line2d_31">
      <g>
       <use xlink:href="#m7917fbe4ee" x="662.999687" y="319.355001" style="stroke: #000000; stroke-width: 0.8"/>
      </g>
     </g>
     <g id="text_23">
      <!-- previous_approved_APP_CREDIT_PCT_mean -->
      <g transform="translate(437.612187 323.15422) scale(0.1 -0.1)">
       <defs>
        <path id="DejaVuSans-76" d="M 191 3500 
L 800 3500 
L 1894 563 
L 2988 3500 
L 3597 3500 
L 2284 0 
L 1503 0 
L 191 3500 
z
" transform="scale(0.015625)"/>
       </defs>
       <use xlink:href="#DejaVuSans-70"/>
       <use xlink:href="#DejaVuSans-72" transform="translate(63.476562 0)"/>
       <use xlink:href="#DejaVuSans-65" transform="translate(102.339844 0)"/>
       <use xlink:href="#DejaVuSans-76" transform="translate(163.863281 0)"/>
       <use xlink:href="#DejaVuSans-69" transform="translate(223.042969 0)"/>
       <use xlink:href="#DejaVuSans-6f" transform="translate(250.826172 0)"/>
       <use xlink:href="#DejaVuSans-75" transform="translate(312.007812 0)"/>
       <use xlink:href="#DejaVuSans-73" transform="translate(375.386719 0)"/>
       <use xlink:href="#DejaVuSans-5f" transform="translate(427.486328 0)"/>
       <use xlink:href="#DejaVuSans-61" transform="translate(477.486328 0)"/>
       <use xlink:href="#DejaVuSans-70" transform="translate(538.765625 0)"/>
       <use xlink:href="#DejaVuSans-70" transform="translate(602.242188 0)"/>
       <use xlink:href="#DejaVuSans-72" transform="translate(665.71875 0)"/>
       <use xlink:href="#DejaVuSans-6f" transform="translate(704.582031 0)"/>
       <use xlink:href="#DejaVuSans-76" transform="translate(765.763672 0)"/>
       <use xlink:href="#DejaVuSans-65" transform="translate(824.943359 0)"/>
       <use xlink:href="#DejaVuSans-64" transform="translate(886.466797 0)"/>
       <use xlink:href="#DejaVuSans-5f" transform="translate(949.943359 0)"/>
       <use xlink:href="#DejaVuSans-41" transform="translate(999.943359 0)"/>
       <use xlink:href="#DejaVuSans-50" transform="translate(1068.351562 0)"/>
       <use xlink:href="#DejaVuSans-50" transform="translate(1128.654297 0)"/>
       <use xlink:href="#DejaVuSans-5f" transform="translate(1188.957031 0)"/>
       <use xlink:href="#DejaVuSans-43" transform="translate(1238.957031 0)"/>
       <use xlink:href="#DejaVuSans-52" transform="translate(1308.78125 0)"/>
       <use xlink:href="#DejaVuSans-45" transform="translate(1378.263672 0)"/>
       <use xlink:href="#DejaVuSans-44" transform="translate(1441.447266 0)"/>
       <use xlink:href="#DejaVuSans-49" transform="translate(1518.449219 0)"/>
       <use xlink:href="#DejaVuSans-54" transform="translate(1547.941406 0)"/>
       <use xlink:href="#DejaVuSans-5f" transform="translate(1609.025391 0)"/>
       <use xlink:href="#DejaVuSans-50" transform="translate(1659.025391 0)"/>
       <use xlink:href="#DejaVuSans-43" transform="translate(1719.328125 0)"/>
       <use xlink:href="#DejaVuSans-54" transform="translate(1789.152344 0)"/>
       <use xlink:href="#DejaVuSans-5f" transform="translate(1850.236328 0)"/>
       <use xlink:href="#DejaVuSans-6d" transform="translate(1900.236328 0)"/>
       <use xlink:href="#DejaVuSans-65" transform="translate(1997.648438 0)"/>
       <use xlink:href="#DejaVuSans-61" transform="translate(2059.171875 0)"/>
       <use xlink:href="#DejaVuSans-6e" transform="translate(2120.451172 0)"/>
      </g>
     </g>
    </g>
    <g id="ytick_10">
     <g id="line2d_32">
      <g>
       <use xlink:href="#m7917fbe4ee" x="662.999687" y="281.224465" style="stroke: #000000; stroke-width: 0.8"/>
      </g>
     </g>
     <g id="text_24">
      <!-- previous_APP_CREDIT_PCT_mean -->
      <g transform="translate(489.862187 285.023684) scale(0.1 -0.1)">
       <use xlink:href="#DejaVuSans-70"/>
       <use xlink:href="#DejaVuSans-72" transform="translate(63.476562 0)"/>
       <use xlink:href="#DejaVuSans-65" transform="translate(102.339844 0)"/>
       <use xlink:href="#DejaVuSans-76" transform="translate(163.863281 0)"/>
       <use xlink:href="#DejaVuSans-69" transform="translate(223.042969 0)"/>
       <use xlink:href="#DejaVuSans-6f" transform="translate(250.826172 0)"/>
       <use xlink:href="#DejaVuSans-75" transform="translate(312.007812 0)"/>
       <use xlink:href="#DejaVuSans-73" transform="translate(375.386719 0)"/>
       <use xlink:href="#DejaVuSans-5f" transform="translate(427.486328 0)"/>
       <use xlink:href="#DejaVuSans-41" transform="translate(477.486328 0)"/>
       <use xlink:href="#DejaVuSans-50" transform="translate(545.894531 0)"/>
       <use xlink:href="#DejaVuSans-50" transform="translate(606.197266 0)"/>
       <use xlink:href="#DejaVuSans-5f" transform="translate(666.5 0)"/>
       <use xlink:href="#DejaVuSans-43" transform="translate(716.5 0)"/>
       <use xlink:href="#DejaVuSans-52" transform="translate(786.324219 0)"/>
       <use xlink:href="#DejaVuSans-45" transform="translate(855.806641 0)"/>
       <use xlink:href="#DejaVuSans-44" transform="translate(918.990234 0)"/>
       <use xlink:href="#DejaVuSans-49" transform="translate(995.992188 0)"/>
       <use xlink:href="#DejaVuSans-54" transform="translate(1025.484375 0)"/>
       <use xlink:href="#DejaVuSans-5f" transform="translate(1086.568359 0)"/>
       <use xlink:href="#DejaVuSans-50" transform="translate(1136.568359 0)"/>
       <use xlink:href="#DejaVuSans-43" transform="translate(1196.871094 0)"/>
       <use xlink:href="#DejaVuSans-54" transform="translate(1266.695312 0)"/>
       <use xlink:href="#DejaVuSans-5f" transform="translate(1327.779297 0)"/>
       <use xlink:href="#DejaVuSans-6d" transform="translate(1377.779297 0)"/>
       <use xlink:href="#DejaVuSans-65" transform="translate(1475.191406 0)"/>
       <use xlink:href="#DejaVuSans-61" transform="translate(1536.714844 0)"/>
       <use xlink:href="#DejaVuSans-6e" transform="translate(1597.994141 0)"/>
      </g>
     </g>
    </g>
    <g id="ytick_11">
     <g id="line2d_33">
      <g>
       <use xlink:href="#m7917fbe4ee" x="662.999687" y="243.093929" style="stroke: #000000; stroke-width: 0.8"/>
      </g>
     </g>
     <g id="text_25">
      <!-- previous_AMT_APPLICATION_mean -->
      <g transform="translate(483.4325 246.893148) scale(0.1 -0.1)">
       <use xlink:href="#DejaVuSans-70"/>
       <use xlink:href="#DejaVuSans-72" transform="translate(63.476562 0)"/>
       <use xlink:href="#DejaVuSans-65" transform="translate(102.339844 0)"/>
       <use xlink:href="#DejaVuSans-76" transform="translate(163.863281 0)"/>
       <use xlink:href="#DejaVuSans-69" transform="translate(223.042969 0)"/>
       <use xlink:href="#DejaVuSans-6f" transform="translate(250.826172 0)"/>
       <use xlink:href="#DejaVuSans-75" transform="translate(312.007812 0)"/>
       <use xlink:href="#DejaVuSans-73" transform="translate(375.386719 0)"/>
       <use xlink:href="#DejaVuSans-5f" transform="translate(427.486328 0)"/>
       <use xlink:href="#DejaVuSans-41" transform="translate(477.486328 0)"/>
       <use xlink:href="#DejaVuSans-4d" transform="translate(545.894531 0)"/>
       <use xlink:href="#DejaVuSans-54" transform="translate(632.173828 0)"/>
       <use xlink:href="#DejaVuSans-5f" transform="translate(693.257812 0)"/>
       <use xlink:href="#DejaVuSans-41" transform="translate(743.257812 0)"/>
       <use xlink:href="#DejaVuSans-50" transform="translate(811.666016 0)"/>
       <use xlink:href="#DejaVuSans-50" transform="translate(871.96875 0)"/>
       <use xlink:href="#DejaVuSans-4c" transform="translate(932.271484 0)"/>
       <use xlink:href="#DejaVuSans-49" transform="translate(987.984375 0)"/>
       <use xlink:href="#DejaVuSans-43" transform="translate(1017.476562 0)"/>
       <use xlink:href="#DejaVuSans-41" transform="translate(1087.300781 0)"/>
       <use xlink:href="#DejaVuSans-54" transform="translate(1147.958984 0)"/>
       <use xlink:href="#DejaVuSans-49" transform="translate(1209.042969 0)"/>
       <use xlink:href="#DejaVuSans-4f" transform="translate(1238.535156 0)"/>
       <use xlink:href="#DejaVuSans-4e" transform="translate(1317.246094 0)"/>
       <use xlink:href="#DejaVuSans-5f" transform="translate(1392.050781 0)"/>
       <use xlink:href="#DejaVuSans-6d" transform="translate(1442.050781 0)"/>
       <use xlink:href="#DejaVuSans-65" transform="translate(1539.462891 0)"/>
       <use xlink:href="#DejaVuSans-61" transform="translate(1600.986328 0)"/>
       <use xlink:href="#DejaVuSans-6e" transform="translate(1662.265625 0)"/>
      </g>
     </g>
    </g>
    <g id="ytick_12">
     <g id="line2d_34">
      <g>
       <use xlink:href="#m7917fbe4ee" x="662.999687" y="204.963393" style="stroke: #000000; stroke-width: 0.8"/>
      </g>
     </g>
     <g id="text_26">
      <!-- pos_late_payment_rate -->
      <g transform="translate(539.484062 208.762612) scale(0.1 -0.1)">
       <use xlink:href="#DejaVuSans-70"/>
       <use xlink:href="#DejaVuSans-6f" transform="translate(63.476562 0)"/>
       <use xlink:href="#DejaVuSans-73" transform="translate(124.658203 0)"/>
       <use xlink:href="#DejaVuSans-5f" transform="translate(176.757812 0)"/>
       <use xlink:href="#DejaVuSans-6c" transform="translate(226.757812 0)"/>
       <use xlink:href="#DejaVuSans-61" transform="translate(254.541016 0)"/>
       <use xlink:href="#DejaVuSans-74" transform="translate(315.820312 0)"/>
       <use xlink:href="#DejaVuSans-65" transform="translate(355.029297 0)"/>
       <use xlink:href="#DejaVuSans-5f" transform="translate(416.552734 0)"/>
       <use xlink:href="#DejaVuSans-70" transform="translate(466.552734 0)"/>
       <use xlink:href="#DejaVuSans-61" transform="translate(530.029297 0)"/>
       <use xlink:href="#DejaVuSans-79" transform="translate(591.308594 0)"/>
       <use xlink:href="#DejaVuSans-6d" transform="translate(650.488281 0)"/>
       <use xlink:href="#DejaVuSans-65" transform="translate(747.900391 0)"/>
       <use xlink:href="#DejaVuSans-6e" transform="translate(809.423828 0)"/>
       <use xlink:href="#DejaVuSans-74" transform="translate(872.802734 0)"/>
       <use xlink:href="#DejaVuSans-5f" transform="translate(912.011719 0)"/>
       <use xlink:href="#DejaVuSans-72" transform="translate(962.011719 0)"/>
       <use xlink:href="#DejaVuSans-61" transform="translate(1003.125 0)"/>
       <use xlink:href="#DejaVuSans-74" transform="translate(1064.404297 0)"/>
       <use xlink:href="#DejaVuSans-65" transform="translate(1103.613281 0)"/>
      </g>
     </g>
    </g>
    <g id="ytick_13">
     <g id="line2d_35">
      <g>
       <use xlink:href="#m7917fbe4ee" x="662.999687" y="166.832857" style="stroke: #000000; stroke-width: 0.8"/>
      </g>
     </g>
     <g id="text_27">
      <!-- AMT_GOODS_PRICE -->
      <g transform="translate(557.652812 170.543794) scale(0.1 -0.1)">
       <defs>
        <path id="DejaVuSans-47" d="M 3809 666 
L 3809 1919 
L 2778 1919 
L 2778 2438 
L 4434 2438 
L 4434 434 
Q 4069 175 3628 42 
Q 3188 -91 2688 -91 
Q 1594 -91 976 548 
Q 359 1188 359 2328 
Q 359 3472 976 4111 
Q 1594 4750 2688 4750 
Q 3144 4750 3555 4637 
Q 3966 4525 4313 4306 
L 4313 3634 
Q 3963 3931 3569 4081 
Q 3175 4231 2741 4231 
Q 1884 4231 1454 3753 
Q 1025 3275 1025 2328 
Q 1025 1384 1454 906 
Q 1884 428 2741 428 
Q 3075 428 3337 486 
Q 3600 544 3809 666 
z
" transform="scale(0.015625)"/>
       </defs>
       <use xlink:href="#DejaVuSans-41"/>
       <use xlink:href="#DejaVuSans-4d" transform="translate(68.408203 0)"/>
       <use xlink:href="#DejaVuSans-54" transform="translate(154.6875 0)"/>
       <use xlink:href="#DejaVuSans-5f" transform="translate(215.771484 0)"/>
       <use xlink:href="#DejaVuSans-47" transform="translate(265.771484 0)"/>
       <use xlink:href="#DejaVuSans-4f" transform="translate(343.261719 0)"/>
       <use xlink:href="#DejaVuSans-4f" transform="translate(421.972656 0)"/>
       <use xlink:href="#DejaVuSans-44" transform="translate(500.683594 0)"/>
       <use xlink:href="#DejaVuSans-53" transform="translate(577.685547 0)"/>
       <use xlink:href="#DejaVuSans-5f" transform="translate(641.162109 0)"/>
       <use xlink:href="#DejaVuSans-50" transform="translate(691.162109 0)"/>
       <use xlink:href="#DejaVuSans-52" transform="translate(751.464844 0)"/>
       <use xlink:href="#DejaVuSans-49" transform="translate(820.947266 0)"/>
       <use xlink:href="#DejaVuSans-43" transform="translate(850.439453 0)"/>
       <use xlink:href="#DejaVuSans-45" transform="translate(920.263672 0)"/>
      </g>
     </g>
    </g>
    <g id="ytick_14">
     <g id="line2d_36">
      <g>
       <use xlink:href="#m7917fbe4ee" x="662.999687" y="128.702321" style="stroke: #000000; stroke-width: 0.8"/>
      </g>
     </g>
     <g id="text_28">
      <!-- install_late_payment_rate -->
      <g transform="translate(527.230937 132.50154) scale(0.1 -0.1)">
       <use xlink:href="#DejaVuSans-69"/>
       <use xlink:href="#DejaVuSans-6e" transform="translate(27.783203 0)"/>
       <use xlink:href="#DejaVuSans-73" transform="translate(91.162109 0)"/>
       <use xlink:href="#DejaVuSans-74" transform="translate(143.261719 0)"/>
       <use xlink:href="#DejaVuSans-61" transform="translate(182.470703 0)"/>
       <use xlink:href="#DejaVuSans-6c" transform="translate(243.75 0)"/>
       <use xlink:href="#DejaVuSans-6c" transform="translate(271.533203 0)"/>
       <use xlink:href="#DejaVuSans-5f" transform="translate(299.316406 0)"/>
       <use xlink:href="#DejaVuSans-6c" transform="translate(349.316406 0)"/>
       <use xlink:href="#DejaVuSans-61" transform="translate(377.099609 0)"/>
       <use xlink:href="#DejaVuSans-74" transform="translate(438.378906 0)"/>
       <use xlink:href="#DejaVuSans-65" transform="translate(477.587891 0)"/>
       <use xlink:href="#DejaVuSans-5f" transform="translate(539.111328 0)"/>
       <use xlink:href="#DejaVuSans-70" transform="translate(589.111328 0)"/>
       <use xlink:href="#DejaVuSans-61" transform="translate(652.587891 0)"/>
       <use xlink:href="#DejaVuSans-79" transform="translate(713.867188 0)"/>
       <use xlink:href="#DejaVuSans-6d" transform="translate(773.046875 0)"/>
       <use xlink:href="#DejaVuSans-65" transform="translate(870.458984 0)"/>
       <use xlink:href="#DejaVuSans-6e" transform="translate(931.982422 0)"/>
       <use xlink:href="#DejaVuSans-74" transform="translate(995.361328 0)"/>
       <use xlink:href="#DejaVuSans-5f" transform="translate(1034.570312 0)"/>
       <use xlink:href="#DejaVuSans-72" transform="translate(1084.570312 0)"/>
       <use xlink:href="#DejaVuSans-61" transform="translate(1125.683594 0)"/>
       <use xlink:href="#DejaVuSans-74" transform="translate(1186.962891 0)"/>
       <use xlink:href="#DejaVuSans-65" transform="translate(1226.171875 0)"/>
      </g>
     </g>
    </g>
    <g id="ytick_15">
     <g id="line2d_37">
      <g>
       <use xlink:href="#m7917fbe4ee" x="662.999687" y="90.571785" style="stroke: #000000; stroke-width: 0.8"/>
      </g>
     </g>
     <g id="text_29">
      <!-- AMT_CREDIT -->
      <g transform="translate(592.415312 94.282722) scale(0.1 -0.1)">
       <use xlink:href="#DejaVuSans-41"/>
       <use xlink:href="#DejaVuSans-4d" transform="translate(68.408203 0)"/>
       <use xlink:href="#DejaVuSans-54" transform="translate(154.6875 0)"/>
       <use xlink:href="#DejaVuSans-5f" transform="translate(215.771484 0)"/>
       <use xlink:href="#DejaVuSans-43" transform="translate(265.771484 0)"/>
       <use xlink:href="#DejaVuSans-52" transform="translate(335.595703 0)"/>
       <use xlink:href="#DejaVuSans-45" transform="translate(405.078125 0)"/>
       <use xlink:href="#DejaVuSans-44" transform="translate(468.261719 0)"/>
       <use xlink:href="#DejaVuSans-49" transform="translate(545.263672 0)"/>
       <use xlink:href="#DejaVuSans-54" transform="translate(574.755859 0)"/>
      </g>
     </g>
    </g>
    <g id="ytick_16">
     <g id="line2d_38">
      <g>
       <use xlink:href="#m7917fbe4ee" x="662.999687" y="52.441249" style="stroke: #000000; stroke-width: 0.8"/>
      </g>
     </g>
     <g id="text_30">
      <!-- EXT_SOURCE_1 -->
      <g transform="translate(579.246562 56.152186) scale(0.1 -0.1)">
       <use xlink:href="#DejaVuSans-45"/>
       <use xlink:href="#DejaVuSans-58" transform="translate(63.183594 0)"/>
       <use xlink:href="#DejaVuSans-54" transform="translate(129.939453 0)"/>
       <use xlink:href="#DejaVuSans-5f" transform="translate(191.023438 0)"/>
       <use xlink:href="#DejaVuSans-53" transform="translate(241.023438 0)"/>
       <use xlink:href="#DejaVuSans-4f" transform="translate(304.5 0)"/>
       <use xlink:href="#DejaVuSans-55" transform="translate(383.210938 0)"/>
       <use xlink:href="#DejaVuSans-52" transform="translate(456.404297 0)"/>
       <use xlink:href="#DejaVuSans-43" transform="translate(520.886719 0)"/>
       <use xlink:href="#DejaVuSans-45" transform="translate(590.710938 0)"/>
       <use xlink:href="#DejaVuSans-5f" transform="translate(653.894531 0)"/>
       <use xlink:href="#DejaVuSans-31" transform="translate(703.894531 0)"/>
      </g>
     </g>
    </g>
   </g>
   <g id="patch_24">
    <path d="M 662.999687 349.478125 
L 662.999687 22.318125 
" style="fill: none; stroke: #000000; stroke-width: 0.8; stroke-linejoin: miter; stroke-linecap: square"/>
   </g>
   <g id="patch_25">
    <path d="M 921.814687 349.478125 
L 921.814687 22.318125 
" style="fill: none; stroke: #000000; stroke-width: 0.8; stroke-linejoin: miter; stroke-linecap: square"/>
   </g>
   <g id="patch_26">
    <path d="M 662.999687 349.478125 
L 921.814687 349.478125 
" style="fill: none; stroke: #000000; stroke-width: 0.8; stroke-linejoin: miter; stroke-linecap: square"/>
   </g>
   <g id="patch_27">
    <path d="M 662.999687 22.318125 
L 921.814687 22.318125 
" style="fill: none; stroke: #000000; stroke-width: 0.8; stroke-linejoin: miter; stroke-linecap: square"/>
   </g>
   <g id="text_31">
    <!-- Top Train/Test PSI Features -->
    <g transform="translate(713.343125 16.318125) scale(0.12 -0.12)">
     <defs>
      <path id="DejaVuSans-2f" d="M 1625 4666 
L 2156 4666 
L 531 -594 
L 0 -594 
L 1625 4666 
z
" transform="scale(0.015625)"/>
     </defs>
     <use xlink:href="#DejaVuSans-54"/>
     <use xlink:href="#DejaVuSans-6f" transform="translate(44.083984 0)"/>
     <use xlink:href="#DejaVuSans-70" transform="translate(105.265625 0)"/>
     <use xlink:href="#DejaVuSans-20" transform="translate(168.742188 0)"/>
     <use xlink:href="#DejaVuSans-54" transform="translate(200.529297 0)"/>
     <use xlink:href="#DejaVuSans-72" transform="translate(246.863281 0)"/>
     <use xlink:href="#DejaVuSans-61" transform="translate(287.976562 0)"/>
     <use xlink:href="#DejaVuSans-69" transform="translate(349.255859 0)"/>
     <use xlink:href="#DejaVuSans-6e" transform="translate(377.039062 0)"/>
     <use xlink:href="#DejaVuSans-2f" transform="translate(440.417969 0)"/>
     <use xlink:href="#DejaVuSans-54" transform="translate(474.109375 0)"/>
     <use xlink:href="#DejaVuSans-65" transform="translate(518.193359 0)"/>
     <use xlink:href="#DejaVuSans-73" transform="translate(579.716797 0)"/>
     <use xlink:href="#DejaVuSans-74" transform="translate(631.816406 0)"/>
     <use xlink:href="#DejaVuSans-20" transform="translate(671.025391 0)"/>
     <use xlink:href="#DejaVuSans-50" transform="translate(702.8125 0)"/>
     <use xlink:href="#DejaVuSans-53" transform="translate(763.115234 0)"/>
     <use xlink:href="#DejaVuSans-49" transform="translate(826.591797 0)"/>
     <use xlink:href="#DejaVuSans-20" transform="translate(856.083984 0)"/>
     <use xlink:href="#DejaVuSans-46" transform="translate(887.871094 0)"/>
     <use xlink:href="#DejaVuSans-65" transform="translate(939.890625 0)"/>
     <use xlink:href="#DejaVuSans-61" transform="translate(1001.414062 0)"/>
     <use xlink:href="#DejaVuSans-74" transform="translate(1062.693359 0)"/>
     <use xlink:href="#DejaVuSans-75" transform="translate(1101.902344 0)"/>
     <use xlink:href="#DejaVuSans-72" transform="translate(1165.28125 0)"/>
     <use xlink:href="#DejaVuSans-65" transform="translate(1204.144531 0)"/>
     <use xlink:href="#DejaVuSans-73" transform="translate(1265.667969 0)"/>
    </g>
   </g>
  </g>
 </g>
 <defs>
  <clipPath id="p2e8a309801">
   <rect x="167.504687" y="22.318125" width="258.815" height="327.16"/>
  </clipPath>
  <clipPath id="p141e7e7cea">
   <rect x="662.999687" y="22.318125" width="258.815" height="327.16"/>
  </clipPath>
 </defs>
</svg>
